<?xml version="1.0" encoding="UTF-8" standalone="no"?>
<!-- Created with Inkscape (http://www.inkscape.org/) -->

<svg
   width="210mm"
   height="297mm"
   viewBox="0 0 210 297"
   version="1.1"
   id="svg5"
   sodipodi:docname="tygospanhofflogo.svg"
   inkscape:version="1.1 (c68e22c387, 2021-05-23)"
   xmlns:inkscape="http://www.inkscape.org/namespaces/inkscape"
   xmlns:sodipodi="http://sodipodi.sourceforge.net/DTD/sodipodi-0.dtd"
   xmlns="http://www.w3.org/2000/svg"
   xmlns:svg="http://www.w3.org/2000/svg">
  <sodipodi:namedview
     id="namedview7"
     pagecolor="#ffffff"
     bordercolor="#666666"
     borderopacity="1.0"
     inkscape:pageshadow="2"
     inkscape:pageopacity="0.0"
     inkscape:pagecheckerboard="0"
     inkscape:document-units="mm"
     showgrid="true"
     inkscape:zoom="0.35355339"
     inkscape:cx="-301.22749"
     inkscape:cy="411.53614"
     inkscape:window-width="1920"
     inkscape:window-height="1017"
     inkscape:window-x="1358"
     inkscape:window-y="-8"
     inkscape:window-maximized="1"
     inkscape:current-layer="layer1">
    <inkscape:grid
       type="xygrid"
       id="grid9" />
  </sodipodi:namedview>
  <defs
     id="defs2">
    <inkscape:path-effect
       effect="bspline"
       id="path-effect1348"
       is_visible="true"
       lpeversion="1"
       weight="33.333333"
       steps="2"
       helper_size="0"
       apply_no_weight="true"
       apply_with_weight="true"
       only_selected="false" />
  </defs>
  <g
     inkscape:label="Layer 1"
     inkscape:groupmode="layer"
     id="layer1">
    <path
       style="fill:#2266bb;fill-opacity:1;stroke:#2266bb;stroke-width:0.264583px;stroke-linecap:butt;stroke-linejoin:miter;stroke-opacity:1"
       d="M 23.812501,44.979168 H 119.0625 v 15.875 l -47.625,-1e-6 10e-7,63.500003 h -15.875 l -10e-7,-63.500003 -31.749999,1e-6 z"
       id="path44"
       sodipodi:nodetypes="ccccccccc" />
    <path
       style="opacity:1;fill:#2266bb;fill-opacity:1;stroke:none;stroke-opacity:1"
       d="m 121.70833,64.822917 c -3.96875,0 -7.93716,0 -12.56746,0 -4.6303,0 -9.92175,0 -14.331625,0.661445 -4.409874,0.661445 -7.93758,1.984334 -10.58353,4.409796 -2.645949,2.425461 -4.409804,5.95317 -5.291721,10.363026 -0.881918,4.409856 -0.881918,9.701416 1.24e-4,14.111199 0.882041,4.409782 2.645895,7.937487 5.291843,10.583257 2.645947,2.64577 6.173654,4.40963 10.583401,5.29149 4.409748,0.88187 9.701308,0.88187 12.347008,3.52789 2.64571,2.64602 2.64571,7.93758 -4e-5,10.58328 C 104.51057,127 99.21901,127 93.927289,127 c -5.291721,0 -10.583282,0 -20.28481,0 -9.701529,0 -23.81262,0 -37.923729,0 0,0 0,15.875 0,15.875 14.111109,0 28.222481,0 37.923922,0 9.701441,0 14.993001,0 20.284719,0 5.291719,0 10.583279,0 14.992929,-0.88197 4.40965,-0.88198 7.93735,-2.64583 10.58316,-5.29163 2.6458,-2.64581 4.40962,-6.17345 5.29161,-10.58318 0.88199,-4.40973 0.88199,-9.70118 1.1e-4,-14.11097 -0.88189,-4.40979 -2.64566,-7.93732 -5.29154,-10.58336 -2.64588,-2.646035 -6.17334,-4.409767 -10.58327,-5.291828 C 104.51045,95.25 99.2188,95.25 96.57294,92.6044 93.92708,89.9588 93.92708,83.638422 96.05879,81.506711 98.1905,79.375 104.18589,79.375 109.10029,79.375 c 4.91439,0 8.63929,0 12.60804,0 0,0 0,-14.552083 0,-14.552083 z"
       id="path1346"
       inkscape:path-effect="#path-effect1348"
       inkscape:original-d="m 121.70833,64.822917 c 0,0 -7.93716,2.64e-4 -11.90625,0 -5.29151,2.64e-4 -10.58296,2.64e-4 -15.875,0 -3.52759,1.323208 -7.055296,2.646097 -10.583338,3.968749 -1.763659,3.528112 -3.527512,7.055821 -5.291666,10.583333 2.64e-4,5.292041 2.64e-4,10.583601 0,15.875001 1.764188,3.528113 3.528041,7.05582 5.291666,10.58333 3.528113,1.76419 7.055821,3.52804 10.583338,5.29167 5.29203,2.6e-4 10.58359,2.6e-4 15.875,0 2.6e-4,5.29204 2.6e-4,10.5836 0,15.875 -5.29151,2.6e-4 -10.58307,2.6e-4 -15.875,0 -5.291512,2.6e-4 -10.583073,2.6e-4 -15.875004,0 -14.111126,2.6e-4 -42.333326,0 -42.333326,0 v 15.875 c 0,0 28.222481,2.6e-4 42.333326,0 5.292037,2.6e-4 10.583597,2.6e-4 15.875004,0 5.29203,2.6e-4 10.58359,2.6e-4 15.875,0 3.52805,-1.76363 7.05575,-3.52748 10.58333,-5.29167 1.76419,-3.52758 3.52801,-7.05522 5.29167,-10.58333 2.6e-4,-5.29151 2.6e-4,-10.58296 0,-15.875 -1.76366,-3.52759 -3.52743,-7.05512 -5.29167,-10.58333 -3.52768,-1.763707 -7.05514,-3.52744 -10.58333,-5.29167 -5.29163,2.6e-4 -10.58328,2.6e-4 -15.875,0 2.6e-4,-5.2912 2.6e-4,-11.611578 0,-15.875 4.26342,2.65e-4 10.25881,2.65e-4 15.875,0 4.2126,2.65e-4 11.90625,0 11.90625,0 z"
       sodipodi:nodetypes="ccccccccccccccccccccccccccc" />
  </g>
</svg>
