<?xml version="1.0" encoding="UTF-8" standalone="no"?>
<!-- Created with Inkscape (http://www.inkscape.org/) -->

<svg
   width="210mm"
   height="297mm"
   viewBox="0 0 210 297"
   version="1.1"
   id="svg5"
   inkscape:version="1.1 (c68e22c387, 2021-05-23)"
   sodipodi:docname="map.svg"
   xmlns:inkscape="http://www.inkscape.org/namespaces/inkscape"
   xmlns:sodipodi="http://sodipodi.sourceforge.net/DTD/sodipodi-0.dtd"
   xmlns="http://www.w3.org/2000/svg"
   xmlns:svg="http://www.w3.org/2000/svg">
  <sodipodi:namedview
     id="namedview7"
     pagecolor="#ffffff"
     bordercolor="#666666"
     borderopacity="1.0"
     inkscape:pageshadow="2"
     inkscape:pageopacity="0.0"
     inkscape:pagecheckerboard="0"
     inkscape:document-units="mm"
     showgrid="false"
     inkscape:zoom="0.74118967"
     inkscape:cx="633.4411"
     inkscape:cy="312.33571"
     inkscape:window-width="1920"
     inkscape:window-height="1017"
     inkscape:window-x="1358"
     inkscape:window-y="-8"
     inkscape:window-maximized="1"
     inkscape:current-layer="layer1" />
  <defs
     id="defs2">
    <inkscape:path-effect
       effect="bspline"
       id="path-effect867"
       is_visible="true"
       lpeversion="1"
       weight="33.333333"
       steps="2"
       helper_size="0"
       apply_no_weight="true"
       apply_with_weight="true"
       only_selected="false" />
  </defs>
  <g
     inkscape:label="Layer 1"
     inkscape:groupmode="layer"
     id="layer1">
    <path
       style="fill:none;stroke:#000000;stroke-width:6.265;stroke-linecap:butt;stroke-linejoin:miter;stroke-opacity:1;stroke-miterlimit:4;stroke-dasharray:none"
       d="m 16.182716,112.26771 c -1.4279,-17.670084 -2.022852,-36.232583 3.986283,-51.999073 6.009134,-15.76649 18.621861,-28.736181 32.246558,-34.090705 13.624696,-5.354523 28.260221,-3.093751 33.019609,3.867342 4.759388,6.961092 -0.357096,18.621917 -9.162454,28.736104 -8.805358,10.114187 -21.299096,18.681323 -22.84579,28.795786 -1.546693,10.114463 7.853361,21.775286 20.942376,21.358536 13.089016,-0.41675 29.866322,-12.910493 37.660172,-24.987973 7.79385,-12.077481 6.60397,-23.738306 9.34078,-34.328663 2.73682,-10.590357 9.40014,-20.109395 18.62219,-23.679079 9.22204,-3.569684 21.00185,-1.189924 29.09314,7.49665 8.09128,8.686575 12.49384,23.679063 16.30154,42.420264 3.8077,18.741201 7.02037,41.229931 3.45054,57.353081 -3.56983,16.12314 -13.92179,25.88015 -30.16409,32.30565 -16.2423,6.4255 -38.37407,9.51919 -53.48592,6.485 -15.111841,-3.03419 -23.20303,-12.19627 -19.097753,-20.04986 4.105276,-7.8536 20.406633,-14.39794 34.923663,-17.13467 14.51702,-2.73673 27.24874,-1.66584 33.49559,-9.69774 6.24686,-8.0319 6.00888,-25.166169 5.47343,-39.802102 -0.53546,-14.635932 -1.36838,-26.772709 -5.23567,-27.07017 -3.86729,-0.297462 -10.76859,11.244372 -16.0637,22.608108 -5.29512,11.363735 -8.98374,22.548614 -19.09798,30.639904 -10.11424,8.09129 -26.653572,13.08878 -40.456671,23.61965 -13.8031,10.53086 -24.868985,26.59424 -33.912151,32.24631 -9.043166,5.65207 -16.063459,0.89255 -20.70424,-9.8762 -4.64078,-10.76876 -6.901552,-27.54607 -8.329452,-45.21615 z"
       id="path865"
       inkscape:path-effect="#path-effect867"
       inkscape:original-d="M 15.349759,113.15985 C 14.755072,94.597618 14.16012,76.035119 13.564904,57.472354 26.178401,44.502408 38.791128,31.532716 51.403845,18.5625 c 14.636374,2.261127 29.271899,4.521899 43.907452,6.782452 -5.116425,11.661554 -10.232908,23.322379 -15.349759,34.983172 -12.493977,8.567743 -24.987715,17.134879 -37.48197,25.701924 9.400691,11.661555 18.800744,23.322382 28.20072,34.983172 16.778245,-12.49398 33.555552,-24.987717 50.332932,-37.481971 -1.18966,-11.661027 -2.37954,-23.321852 -3.56971,-34.983174 6.66386,-9.519155 13.32718,-19.038197 19.99038,-28.557691 11.78055,2.38012 23.56036,4.75988 35.34015,7.139424 4.40299,14.993353 8.80555,29.98584 13.20793,44.978365 3.21307,22.489895 6.42574,44.978627 9.63822,67.467547 -10.35211,9.75767 -20.70406,19.51469 -31.05649,29.27163 -22.13239,3.09408 -44.26416,6.18777 -66.396633,9.28125 -8.091244,-9.16217 -16.18243,-18.32425 -24.274039,-27.48677 16.302273,-6.54434 32.603632,-13.08868 48.905052,-19.63342 12.73248,1.0712 25.4642,2.14209 38.19591,3.21274 -0.23772,-17.13469 -0.4757,-34.268963 -0.71394,-51.403843 -0.83269,-12.136998 -1.66561,-24.273774 -2.4988,-36.411058 -6.90132,11.542562 -13.80262,23.084398 -20.70433,34.626203 -3.68851,11.185583 -7.37714,22.370458 -11.0661,33.555288 -16.53973,4.99796 -33.079066,9.99546 -49.618993,14.99279 -11.066063,16.06429 -22.131948,32.12767 -33.198318,48.1911 -7.020308,-4.75944 -14.040601,-9.51896 -21.061298,-14.27884 -2.260598,-16.77772 -4.52137,-33.55503 -6.782452,-50.33294 z" />
  </g>
</svg>
